# xmcd
#
# Track frame offsets:
#	150
#	27412
#	59545
#	69170
#	105485
#	115077
#	136350
#	142690
#	162097
#	182160
#	229337
#
# Disc length: 3363 seconds
#
# Revision: 1
# Processed by: cddbd v1.5.2PL0 Copyright (c) Steve Scherf et al.
# Submitted via: audiograbber 1.83.01
#
DISCID=8f0d210b
DTITLE=пападглгтяиоу-суккаиоу [2000] - г лпакамта тым пеияатым
DYEAR=2000
DGENRE=
TTITLE0=NANNA'S LIED
TTITLE1=г лпакамта тым пеияатым
TTITLE2=г тфемг тым пеияатым
TTITLE3=SEPTEMBER SONG/NOVEMBER
TTITLE4=WENN ICH MIR WUNSCHEN DURFTE -ам лпояо╬са йати ма лоу еувгхы
TTITLE5=STRANGE WEATHER
TTITLE6=TO KOMMENO SKOINI
TTITLE7=OLA ALLAZOYN
TTITLE8=ALABAMA SONG
TTITLE9=SURABAYA JOHNNY/ LAST YEAR ABOUT THIS TIME
TTITLE10=WIE LANGE NOCH? GIA POSO KAIRO AKOMH?
EXTD=
EXTT0=
EXTT1=
EXTT2=
EXTT3=
EXTT4=
EXTT5=
EXTT6=
EXTT7=
EXTT8=
EXTT9=
EXTT10=
PLAYORDER=
